{"title":"Leon.Van.Den.Zanden.Leon.DVDRIP.XVID-MisterDeee","uid":6126745,"size":730104444,"categoryP":"video","categoryS":"tv_shows","magnet":"?xt=urn:btih:ab67a8216af6d6467c4838600e128c0f696b7284&amp;dn=Leon.Van.Den.Zanden.Leon.DVDRIP.XVID-MisterDeee&amp;tr=udp%3A%2F%2Ftracker.openbittorrent.com%3A80&amp;tr=udp%3A%2F%2Fopen.demonii.com%3A1337&amp;tr=udp%3A%2F%2Ftracker.coppersurfer.tk%3A6969&amp;tr=udp%3A%2F%2Fexodus.desync.com%3A6969","seeders":0,"leechers":1,"uploader":"MisterDeee","files":-1,"time":1295965496,"description":"LeÃƒÂ²n is Leon van der Zandens vierde soloprogramma waarin hij zich vrijvecht van alles wat hem in de macht wil houden: zijn jeugd, vrouwen, zijn moeder, de pinkstergemeente en de dood.\n\nHet is een twee strijd tussen de loser en de player, de mens en zijn lot, tussen de cabaretier en zijn publiek. Zijn wapens zijn snelle grappen, een expressieve mimiek, een lenig lijf en superveel zelfspot.\n\nLeon daagt je uit om mee te gaan in deze emotionele achtbaan met als mogelijk eindpunt: een onsterfelijk moment.\n\n&quot;Leon van der Zanden heeft in tegenstelling tot veel generatiegenoten daadwerkelijk iets te zeggen.&quot; (Algemeen Dagblad)\n\nGeneral\nFormat                           : AVI\nFormat/Info                      : Audio Video Interleave\nFile size                        : 696 MiB\nDuration                         : 1h 37mn\nOverall bit rate                 : 998 Kbps\nMovie name                       : leonzandenleon 0061\n\nVideo\nID                               : 0\nFormat                           : MPEG-4 Visual\nFormat profile                   : Simple@L3\nFormat settings, BVOP            : No\nFormat settings, QPel            : No\nFormat settings, GMC             : No warppoints\nFormat settings, Matrix          : Default (H.263)\nCodec ID                         : XVID\nCodec ID/Hint                    : XviD\nDuration                         : 1h 37mn\nBit rate                         : 800 Kbps\nWidth                            : 672 pixels\nHeight                           : 368 pixels\nDisplay aspect ratio             : 16:9\nFrame rate                       : 30.000 fps\nColor space                      : YUV\nChroma subsampling               : 4:2:0\nBit depth                        : 8 bits\nScan type                        : Progressive\nBits/(Pixel*Frame)               : 0.108\nStream size                      : 558 MiB (80%)\nWriting library                  : XviD 1.1.2 (UTC 2006-11-01)\n\nAudio\nID                               : 1\nFormat                           : AC-3\nFormat/Info                      : Audio Coding 3\nMode extension                   : CM (complete main)\nCodec ID                         : 2000\nDuration                         : 1h 37mn\nBit rate mode                    : Constant\nBit rate                         : 192 Kbps\nChannel(s)                       : 2 channels\nChannel positions                : Front: L R\nSampling rate                    : 48.0 KHz\nBit depth                        : 16 bits\nStream size                      : 134 MiB (19%)\nAlignment                        : Split accross interleaves\nInterleave, duration             : 500 ms (15.00 video frames)\nInterleave, preload duration     : 500 ms\n\nLeave your comment about Audio/Video/Movie.","torrent":{"xt":"urn:btih:ab67a8216af6d6467c4838600e128c0f696b7284","amp;dn":"Leon.Van.Den.Zanden.Leon.DVDRIP.XVID-MisterDeee","amp;tr":["udp%3A%2F%2Ftracker.openbittorrent.com%3A80","udp%3A%2F%2Fopen.demonii.com%3A1337","udp%3A%2F%2Ftracker.coppersurfer.tk%3A6969","udp%3A%2F%2Fexodus.desync.com%3A6969"],"infoHash":"ab67a8216af6d6467c4838600e128c0f696b7284","infoHashBuffer":{"type":"Buffer","data":[171,103,168,33,106,246,214,70,124,72,56,96,14,18,140,15,105,107,114,132]},"announce":[],"urlList":[]}}